<mxfile host="app.diagrams.net" agent="Mozilla/5.0 (X11; Ubuntu; Linux x86_64; rv:131.0) Gecko/20100101 Firefox/131.0" version="24.7.17">
  <diagram name="Page-1" id="c7488fd3-1785-93aa-aadb-54a6760d102a">
    <mxGraphModel dx="1217" dy="696" grid="1" gridSize="10" guides="1" tooltips="1" connect="1" arrows="1" fold="1" page="1" pageScale="1" pageWidth="1100" pageHeight="850" background="none" math="0" shadow="0">
      <root>
        <mxCell id="0" />
        <mxCell id="1" parent="0" />
        <mxCell id="2b4e8129b02d487f-1" value="Network" style="swimlane;html=1;childLayout=stackLayout;horizontal=1;startSize=20;horizontalStack=0;rounded=0;shadow=0;labelBackgroundColor=none;strokeWidth=1;fontFamily=Verdana;fontSize=8;align=center;" parent="1" vertex="1">
          <mxGeometry x="80" y="40" width="1030" height="760" as="geometry" />
        </mxCell>
        <mxCell id="2b4e8129b02d487f-2" value="Preprocess" style="swimlane;html=1;startSize=20;horizontal=0;" parent="2b4e8129b02d487f-1" vertex="1">
          <mxGeometry y="20" width="1030" height="220" as="geometry" />
        </mxCell>
        <mxCell id="G4aiEyghwZzXeoxi_9_L-10" style="edgeStyle=orthogonalEdgeStyle;rounded=0;orthogonalLoop=1;jettySize=auto;html=1;entryX=0;entryY=0.5;entryDx=0;entryDy=0;" edge="1" parent="2b4e8129b02d487f-2" source="G4aiEyghwZzXeoxi_9_L-1" target="G4aiEyghwZzXeoxi_9_L-7">
          <mxGeometry relative="1" as="geometry" />
        </mxCell>
        <mxCell id="G4aiEyghwZzXeoxi_9_L-11" style="edgeStyle=orthogonalEdgeStyle;rounded=0;orthogonalLoop=1;jettySize=auto;html=1;entryX=0;entryY=0.5;entryDx=0;entryDy=0;" edge="1" parent="2b4e8129b02d487f-2" source="G4aiEyghwZzXeoxi_9_L-1" target="G4aiEyghwZzXeoxi_9_L-8">
          <mxGeometry relative="1" as="geometry" />
        </mxCell>
        <mxCell id="G4aiEyghwZzXeoxi_9_L-1" value="Labeled Image" style="rounded=1;whiteSpace=wrap;html=1;" vertex="1" parent="2b4e8129b02d487f-2">
          <mxGeometry x="65" y="80" width="80" height="60" as="geometry" />
        </mxCell>
        <mxCell id="G4aiEyghwZzXeoxi_9_L-177" style="edgeStyle=orthogonalEdgeStyle;rounded=0;orthogonalLoop=1;jettySize=auto;html=1;" edge="1" parent="2b4e8129b02d487f-2" source="G4aiEyghwZzXeoxi_9_L-3" target="G4aiEyghwZzXeoxi_9_L-16">
          <mxGeometry relative="1" as="geometry" />
        </mxCell>
        <mxCell id="G4aiEyghwZzXeoxi_9_L-3" value="Kalman Filter Keypoints" style="shape=process;whiteSpace=wrap;html=1;backgroundOutline=1;" vertex="1" parent="2b4e8129b02d487f-2">
          <mxGeometry x="565" y="80" width="180" height="60" as="geometry" />
        </mxCell>
        <mxCell id="G4aiEyghwZzXeoxi_9_L-4" value="Enhance Database" style="swimlane;whiteSpace=wrap;html=1;" vertex="1" parent="2b4e8129b02d487f-2">
          <mxGeometry x="275" y="10" width="150" height="180" as="geometry" />
        </mxCell>
        <mxCell id="G4aiEyghwZzXeoxi_9_L-6" value="Guassian blur" style="shape=process;whiteSpace=wrap;html=1;backgroundOutline=1;" vertex="1" parent="G4aiEyghwZzXeoxi_9_L-4">
          <mxGeometry x="15" y="30" width="120" height="40" as="geometry" />
        </mxCell>
        <mxCell id="G4aiEyghwZzXeoxi_9_L-7" value="Gaussian noise on color channel" style="shape=process;whiteSpace=wrap;html=1;backgroundOutline=1;" vertex="1" parent="G4aiEyghwZzXeoxi_9_L-4">
          <mxGeometry x="15" y="80" width="120" height="40" as="geometry" />
        </mxCell>
        <mxCell id="G4aiEyghwZzXeoxi_9_L-8" value="Adjust image brightness" style="shape=process;whiteSpace=wrap;html=1;backgroundOutline=1;" vertex="1" parent="G4aiEyghwZzXeoxi_9_L-4">
          <mxGeometry x="15" y="130" width="120" height="40" as="geometry" />
        </mxCell>
        <mxCell id="G4aiEyghwZzXeoxi_9_L-9" style="edgeStyle=orthogonalEdgeStyle;rounded=0;orthogonalLoop=1;jettySize=auto;html=1;entryX=0.023;entryY=0.5;entryDx=0;entryDy=0;entryPerimeter=0;" edge="1" parent="2b4e8129b02d487f-2" source="G4aiEyghwZzXeoxi_9_L-1" target="G4aiEyghwZzXeoxi_9_L-6">
          <mxGeometry relative="1" as="geometry" />
        </mxCell>
        <mxCell id="G4aiEyghwZzXeoxi_9_L-12" style="edgeStyle=orthogonalEdgeStyle;rounded=0;orthogonalLoop=1;jettySize=auto;html=1;entryX=0;entryY=0.5;entryDx=0;entryDy=0;" edge="1" parent="2b4e8129b02d487f-2" source="G4aiEyghwZzXeoxi_9_L-6" target="G4aiEyghwZzXeoxi_9_L-3">
          <mxGeometry relative="1" as="geometry" />
        </mxCell>
        <mxCell id="G4aiEyghwZzXeoxi_9_L-14" style="edgeStyle=orthogonalEdgeStyle;rounded=0;orthogonalLoop=1;jettySize=auto;html=1;entryX=0;entryY=0.5;entryDx=0;entryDy=0;" edge="1" parent="2b4e8129b02d487f-2" source="G4aiEyghwZzXeoxi_9_L-8" target="G4aiEyghwZzXeoxi_9_L-3">
          <mxGeometry relative="1" as="geometry" />
        </mxCell>
        <mxCell id="G4aiEyghwZzXeoxi_9_L-15" style="edgeStyle=orthogonalEdgeStyle;rounded=0;orthogonalLoop=1;jettySize=auto;html=1;exitX=1;exitY=0.5;exitDx=0;exitDy=0;entryX=0;entryY=0.5;entryDx=0;entryDy=0;" edge="1" parent="2b4e8129b02d487f-2" source="G4aiEyghwZzXeoxi_9_L-7" target="G4aiEyghwZzXeoxi_9_L-3">
          <mxGeometry relative="1" as="geometry" />
        </mxCell>
        <mxCell id="G4aiEyghwZzXeoxi_9_L-16" value="&lt;span lang=&quot;en&quot; class=&quot;HwtZe&quot;&gt;&lt;span class=&quot;jCAhz ChMk0b&quot;&gt;&lt;span class=&quot;ryNqvb&quot;&gt;Temporally consecutive images&lt;/span&gt;&lt;/span&gt;&lt;/span&gt;" style="rounded=1;whiteSpace=wrap;html=1;" vertex="1" parent="2b4e8129b02d487f-2">
          <mxGeometry x="845" y="80" width="120" height="60" as="geometry" />
        </mxCell>
        <mxCell id="2b4e8129b02d487f-3" value="Key Points Detect" style="swimlane;html=1;startSize=20;horizontal=0;" parent="2b4e8129b02d487f-1" vertex="1">
          <mxGeometry y="240" width="1030" height="370" as="geometry" />
        </mxCell>
        <mxCell id="G4aiEyghwZzXeoxi_9_L-19" value="DarkNetCP Backbone" style="swimlane;whiteSpace=wrap;html=1;" vertex="1" parent="2b4e8129b02d487f-3">
          <mxGeometry x="50" y="15" width="200" height="340" as="geometry" />
        </mxCell>
        <mxCell id="G4aiEyghwZzXeoxi_9_L-20" value="P0(640x640) with 3 channel" style="rounded=1;whiteSpace=wrap;html=1;" vertex="1" parent="G4aiEyghwZzXeoxi_9_L-19">
          <mxGeometry x="20" y="35" width="160" height="30" as="geometry" />
        </mxCell>
        <mxCell id="G4aiEyghwZzXeoxi_9_L-27" style="edgeStyle=orthogonalEdgeStyle;rounded=0;orthogonalLoop=1;jettySize=auto;html=1;exitX=0.5;exitY=1;exitDx=0;exitDy=0;entryX=0.5;entryY=0;entryDx=0;entryDy=0;" edge="1" parent="G4aiEyghwZzXeoxi_9_L-19" source="G4aiEyghwZzXeoxi_9_L-21" target="G4aiEyghwZzXeoxi_9_L-24">
          <mxGeometry relative="1" as="geometry" />
        </mxCell>
        <mxCell id="G4aiEyghwZzXeoxi_9_L-21" value="P3(80x80) with 3 channel" style="rounded=1;whiteSpace=wrap;html=1;" vertex="1" parent="G4aiEyghwZzXeoxi_9_L-19">
          <mxGeometry x="20" y="115" width="160" height="30" as="geometry" />
        </mxCell>
        <mxCell id="G4aiEyghwZzXeoxi_9_L-22" value="" style="endArrow=classic;html=1;rounded=0;exitX=0.5;exitY=1;exitDx=0;exitDy=0;entryX=0.498;entryY=-0.089;entryDx=0;entryDy=0;entryPerimeter=0;" edge="1" parent="G4aiEyghwZzXeoxi_9_L-19" source="G4aiEyghwZzXeoxi_9_L-20" target="G4aiEyghwZzXeoxi_9_L-21">
          <mxGeometry relative="1" as="geometry">
            <mxPoint x="110" y="80" as="sourcePoint" />
            <mxPoint x="210" y="80" as="targetPoint" />
          </mxGeometry>
        </mxCell>
        <mxCell id="G4aiEyghwZzXeoxi_9_L-23" value="P1,P2" style="edgeLabel;resizable=0;html=1;;align=center;verticalAlign=middle;" connectable="0" vertex="1" parent="G4aiEyghwZzXeoxi_9_L-22">
          <mxGeometry relative="1" as="geometry" />
        </mxCell>
        <mxCell id="G4aiEyghwZzXeoxi_9_L-28" style="edgeStyle=orthogonalEdgeStyle;rounded=0;orthogonalLoop=1;jettySize=auto;html=1;exitX=0.5;exitY=1;exitDx=0;exitDy=0;entryX=0.5;entryY=0;entryDx=0;entryDy=0;" edge="1" parent="G4aiEyghwZzXeoxi_9_L-19" source="G4aiEyghwZzXeoxi_9_L-24" target="G4aiEyghwZzXeoxi_9_L-25">
          <mxGeometry relative="1" as="geometry" />
        </mxCell>
        <mxCell id="G4aiEyghwZzXeoxi_9_L-24" value="P4(40x40) with 3 channel" style="rounded=1;whiteSpace=wrap;html=1;" vertex="1" parent="G4aiEyghwZzXeoxi_9_L-19">
          <mxGeometry x="20" y="170" width="160" height="30" as="geometry" />
        </mxCell>
        <mxCell id="G4aiEyghwZzXeoxi_9_L-29" style="edgeStyle=orthogonalEdgeStyle;rounded=0;orthogonalLoop=1;jettySize=auto;html=1;exitX=0.5;exitY=1;exitDx=0;exitDy=0;entryX=0.5;entryY=0;entryDx=0;entryDy=0;" edge="1" parent="G4aiEyghwZzXeoxi_9_L-19" source="G4aiEyghwZzXeoxi_9_L-25" target="G4aiEyghwZzXeoxi_9_L-26">
          <mxGeometry relative="1" as="geometry" />
        </mxCell>
        <mxCell id="G4aiEyghwZzXeoxi_9_L-25" value="P5(20x20) with 3 channel" style="rounded=1;whiteSpace=wrap;html=1;" vertex="1" parent="G4aiEyghwZzXeoxi_9_L-19">
          <mxGeometry x="20" y="225" width="160" height="30" as="geometry" />
        </mxCell>
        <mxCell id="G4aiEyghwZzXeoxi_9_L-26" value="P6(10x10) with 3 channel" style="rounded=1;whiteSpace=wrap;html=1;" vertex="1" parent="G4aiEyghwZzXeoxi_9_L-19">
          <mxGeometry x="20" y="280" width="160" height="30" as="geometry" />
        </mxCell>
        <mxCell id="G4aiEyghwZzXeoxi_9_L-30" value="PANet feature fusion" style="swimlane;whiteSpace=wrap;html=1;" vertex="1" parent="2b4e8129b02d487f-3">
          <mxGeometry x="290" y="10" width="410" height="310" as="geometry" />
        </mxCell>
        <mxCell id="G4aiEyghwZzXeoxi_9_L-31" value="Top-down path" style="swimlane;whiteSpace=wrap;html=1;" vertex="1" parent="G4aiEyghwZzXeoxi_9_L-30">
          <mxGeometry x="20" y="37.5" width="170" height="262.5" as="geometry" />
        </mxCell>
        <mxCell id="G4aiEyghwZzXeoxi_9_L-78" style="edgeStyle=orthogonalEdgeStyle;rounded=0;orthogonalLoop=1;jettySize=auto;html=1;" edge="1" parent="G4aiEyghwZzXeoxi_9_L-31" source="G4aiEyghwZzXeoxi_9_L-66" target="G4aiEyghwZzXeoxi_9_L-67">
          <mxGeometry relative="1" as="geometry" />
        </mxCell>
        <mxCell id="G4aiEyghwZzXeoxi_9_L-66" value="P3(80x80) with 3 channel" style="rounded=1;whiteSpace=wrap;html=1;" vertex="1" parent="G4aiEyghwZzXeoxi_9_L-31">
          <mxGeometry x="5" y="42.5" width="160" height="30" as="geometry" />
        </mxCell>
        <mxCell id="G4aiEyghwZzXeoxi_9_L-79" style="edgeStyle=orthogonalEdgeStyle;rounded=0;orthogonalLoop=1;jettySize=auto;html=1;exitX=0.5;exitY=1;exitDx=0;exitDy=0;entryX=0.5;entryY=0;entryDx=0;entryDy=0;" edge="1" parent="G4aiEyghwZzXeoxi_9_L-31" source="G4aiEyghwZzXeoxi_9_L-67" target="G4aiEyghwZzXeoxi_9_L-68">
          <mxGeometry relative="1" as="geometry" />
        </mxCell>
        <mxCell id="G4aiEyghwZzXeoxi_9_L-67" value="P4(40x40) with 3 channel" style="rounded=1;whiteSpace=wrap;html=1;" vertex="1" parent="G4aiEyghwZzXeoxi_9_L-31">
          <mxGeometry x="5" y="97.5" width="160" height="30" as="geometry" />
        </mxCell>
        <mxCell id="G4aiEyghwZzXeoxi_9_L-80" style="edgeStyle=orthogonalEdgeStyle;rounded=0;orthogonalLoop=1;jettySize=auto;html=1;exitX=0.5;exitY=1;exitDx=0;exitDy=0;entryX=0.5;entryY=0;entryDx=0;entryDy=0;" edge="1" parent="G4aiEyghwZzXeoxi_9_L-31" source="G4aiEyghwZzXeoxi_9_L-68" target="G4aiEyghwZzXeoxi_9_L-69">
          <mxGeometry relative="1" as="geometry" />
        </mxCell>
        <mxCell id="G4aiEyghwZzXeoxi_9_L-68" value="P5(20x20) with 3 channel" style="rounded=1;whiteSpace=wrap;html=1;" vertex="1" parent="G4aiEyghwZzXeoxi_9_L-31">
          <mxGeometry x="5" y="152.5" width="160" height="30" as="geometry" />
        </mxCell>
        <mxCell id="G4aiEyghwZzXeoxi_9_L-69" value="P6(10x10) with 3 channel" style="rounded=1;whiteSpace=wrap;html=1;" vertex="1" parent="G4aiEyghwZzXeoxi_9_L-31">
          <mxGeometry x="5" y="207.5" width="160" height="30" as="geometry" />
        </mxCell>
        <mxCell id="G4aiEyghwZzXeoxi_9_L-32" value="Bottom-up path" style="swimlane;whiteSpace=wrap;html=1;" vertex="1" parent="G4aiEyghwZzXeoxi_9_L-30">
          <mxGeometry x="220" y="37.5" width="170" height="262.5" as="geometry" />
        </mxCell>
        <mxCell id="G4aiEyghwZzXeoxi_9_L-70" value="P3(80x80) with 3 channel" style="rounded=1;whiteSpace=wrap;html=1;" vertex="1" parent="G4aiEyghwZzXeoxi_9_L-32">
          <mxGeometry x="5" y="40" width="160" height="30" as="geometry" />
        </mxCell>
        <mxCell id="G4aiEyghwZzXeoxi_9_L-84" style="edgeStyle=orthogonalEdgeStyle;rounded=0;orthogonalLoop=1;jettySize=auto;html=1;exitX=0.5;exitY=0;exitDx=0;exitDy=0;entryX=0.5;entryY=1;entryDx=0;entryDy=0;" edge="1" parent="G4aiEyghwZzXeoxi_9_L-32" source="G4aiEyghwZzXeoxi_9_L-71" target="G4aiEyghwZzXeoxi_9_L-70">
          <mxGeometry relative="1" as="geometry" />
        </mxCell>
        <mxCell id="G4aiEyghwZzXeoxi_9_L-71" value="P4(40x40) with 3 channel" style="rounded=1;whiteSpace=wrap;html=1;" vertex="1" parent="G4aiEyghwZzXeoxi_9_L-32">
          <mxGeometry x="5" y="95" width="160" height="30" as="geometry" />
        </mxCell>
        <mxCell id="G4aiEyghwZzXeoxi_9_L-83" style="edgeStyle=orthogonalEdgeStyle;rounded=0;orthogonalLoop=1;jettySize=auto;html=1;exitX=0.5;exitY=0;exitDx=0;exitDy=0;entryX=0.5;entryY=1;entryDx=0;entryDy=0;" edge="1" parent="G4aiEyghwZzXeoxi_9_L-32" source="G4aiEyghwZzXeoxi_9_L-72" target="G4aiEyghwZzXeoxi_9_L-71">
          <mxGeometry relative="1" as="geometry" />
        </mxCell>
        <mxCell id="G4aiEyghwZzXeoxi_9_L-72" value="P5(20x20) with 3 channel" style="rounded=1;whiteSpace=wrap;html=1;" vertex="1" parent="G4aiEyghwZzXeoxi_9_L-32">
          <mxGeometry x="5" y="150" width="160" height="30" as="geometry" />
        </mxCell>
        <mxCell id="G4aiEyghwZzXeoxi_9_L-82" style="edgeStyle=orthogonalEdgeStyle;rounded=0;orthogonalLoop=1;jettySize=auto;html=1;exitX=0.5;exitY=0;exitDx=0;exitDy=0;entryX=0.5;entryY=1;entryDx=0;entryDy=0;" edge="1" parent="G4aiEyghwZzXeoxi_9_L-32" source="G4aiEyghwZzXeoxi_9_L-73" target="G4aiEyghwZzXeoxi_9_L-72">
          <mxGeometry relative="1" as="geometry" />
        </mxCell>
        <mxCell id="G4aiEyghwZzXeoxi_9_L-73" value="P6(10x10) with 3 channel" style="rounded=1;whiteSpace=wrap;html=1;" vertex="1" parent="G4aiEyghwZzXeoxi_9_L-32">
          <mxGeometry x="5" y="205" width="160" height="30" as="geometry" />
        </mxCell>
        <mxCell id="G4aiEyghwZzXeoxi_9_L-81" style="edgeStyle=orthogonalEdgeStyle;rounded=0;orthogonalLoop=1;jettySize=auto;html=1;exitX=1;exitY=0.5;exitDx=0;exitDy=0;entryX=0;entryY=0.5;entryDx=0;entryDy=0;" edge="1" parent="G4aiEyghwZzXeoxi_9_L-30" source="G4aiEyghwZzXeoxi_9_L-69" target="G4aiEyghwZzXeoxi_9_L-73">
          <mxGeometry relative="1" as="geometry" />
        </mxCell>
        <mxCell id="G4aiEyghwZzXeoxi_9_L-85" style="edgeStyle=orthogonalEdgeStyle;rounded=0;orthogonalLoop=1;jettySize=auto;html=1;exitX=1;exitY=0.5;exitDx=0;exitDy=0;entryX=0;entryY=0.5;entryDx=0;entryDy=0;" edge="1" parent="G4aiEyghwZzXeoxi_9_L-30" source="G4aiEyghwZzXeoxi_9_L-66" target="G4aiEyghwZzXeoxi_9_L-70">
          <mxGeometry relative="1" as="geometry" />
        </mxCell>
        <mxCell id="G4aiEyghwZzXeoxi_9_L-86" style="edgeStyle=orthogonalEdgeStyle;rounded=0;orthogonalLoop=1;jettySize=auto;html=1;exitX=1;exitY=0.5;exitDx=0;exitDy=0;" edge="1" parent="G4aiEyghwZzXeoxi_9_L-30" source="G4aiEyghwZzXeoxi_9_L-67" target="G4aiEyghwZzXeoxi_9_L-71">
          <mxGeometry relative="1" as="geometry" />
        </mxCell>
        <mxCell id="G4aiEyghwZzXeoxi_9_L-87" style="edgeStyle=orthogonalEdgeStyle;rounded=0;orthogonalLoop=1;jettySize=auto;html=1;exitX=1;exitY=0.5;exitDx=0;exitDy=0;" edge="1" parent="G4aiEyghwZzXeoxi_9_L-30" source="G4aiEyghwZzXeoxi_9_L-68" target="G4aiEyghwZzXeoxi_9_L-72">
          <mxGeometry relative="1" as="geometry" />
        </mxCell>
        <mxCell id="G4aiEyghwZzXeoxi_9_L-74" style="edgeStyle=orthogonalEdgeStyle;rounded=0;orthogonalLoop=1;jettySize=auto;html=1;entryX=0;entryY=0.5;entryDx=0;entryDy=0;" edge="1" parent="2b4e8129b02d487f-3" source="G4aiEyghwZzXeoxi_9_L-21" target="G4aiEyghwZzXeoxi_9_L-66">
          <mxGeometry relative="1" as="geometry" />
        </mxCell>
        <mxCell id="G4aiEyghwZzXeoxi_9_L-75" style="edgeStyle=orthogonalEdgeStyle;rounded=0;orthogonalLoop=1;jettySize=auto;html=1;exitX=1;exitY=0.5;exitDx=0;exitDy=0;entryX=0;entryY=0.5;entryDx=0;entryDy=0;" edge="1" parent="2b4e8129b02d487f-3" source="G4aiEyghwZzXeoxi_9_L-24" target="G4aiEyghwZzXeoxi_9_L-67">
          <mxGeometry relative="1" as="geometry" />
        </mxCell>
        <mxCell id="G4aiEyghwZzXeoxi_9_L-76" style="edgeStyle=orthogonalEdgeStyle;rounded=0;orthogonalLoop=1;jettySize=auto;html=1;exitX=1;exitY=0.5;exitDx=0;exitDy=0;entryX=0;entryY=0.5;entryDx=0;entryDy=0;" edge="1" parent="2b4e8129b02d487f-3" source="G4aiEyghwZzXeoxi_9_L-25" target="G4aiEyghwZzXeoxi_9_L-68">
          <mxGeometry relative="1" as="geometry" />
        </mxCell>
        <mxCell id="G4aiEyghwZzXeoxi_9_L-77" style="edgeStyle=orthogonalEdgeStyle;rounded=0;orthogonalLoop=1;jettySize=auto;html=1;exitX=1;exitY=0.5;exitDx=0;exitDy=0;entryX=0;entryY=0.5;entryDx=0;entryDy=0;" edge="1" parent="2b4e8129b02d487f-3" source="G4aiEyghwZzXeoxi_9_L-26" target="G4aiEyghwZzXeoxi_9_L-69">
          <mxGeometry relative="1" as="geometry" />
        </mxCell>
        <mxCell id="G4aiEyghwZzXeoxi_9_L-88" value="Detection heads" style="swimlane;whiteSpace=wrap;html=1;" vertex="1" parent="2b4e8129b02d487f-3">
          <mxGeometry x="720" y="50" width="110" height="240" as="geometry" />
        </mxCell>
        <mxCell id="G4aiEyghwZzXeoxi_9_L-90" value="head4" style="rounded=1;whiteSpace=wrap;html=1;" vertex="1" parent="G4aiEyghwZzXeoxi_9_L-88">
          <mxGeometry x="27.5" y="30" width="55" height="30" as="geometry" />
        </mxCell>
        <mxCell id="G4aiEyghwZzXeoxi_9_L-91" value="head3" style="rounded=1;whiteSpace=wrap;html=1;" vertex="1" parent="G4aiEyghwZzXeoxi_9_L-88">
          <mxGeometry x="27.5" y="85" width="55" height="30" as="geometry" />
        </mxCell>
        <mxCell id="G4aiEyghwZzXeoxi_9_L-92" value="head2" style="rounded=1;whiteSpace=wrap;html=1;" vertex="1" parent="G4aiEyghwZzXeoxi_9_L-88">
          <mxGeometry x="27.5" y="140" width="55" height="30" as="geometry" />
        </mxCell>
        <mxCell id="G4aiEyghwZzXeoxi_9_L-93" value="head1" style="rounded=1;whiteSpace=wrap;html=1;" vertex="1" parent="G4aiEyghwZzXeoxi_9_L-88">
          <mxGeometry x="27.5" y="195" width="55" height="30" as="geometry" />
        </mxCell>
        <mxCell id="G4aiEyghwZzXeoxi_9_L-94" value="Box and Keypoints" style="swimlane;whiteSpace=wrap;html=1;startSize=35;" vertex="1" parent="2b4e8129b02d487f-3">
          <mxGeometry x="860" y="15" width="110" height="320" as="geometry" />
        </mxCell>
        <mxCell id="G4aiEyghwZzXeoxi_9_L-95" value="Box" style="rounded=1;whiteSpace=wrap;html=1;" vertex="1" parent="G4aiEyghwZzXeoxi_9_L-94">
          <mxGeometry x="20" y="55" width="50" height="20" as="geometry" />
        </mxCell>
        <mxCell id="G4aiEyghwZzXeoxi_9_L-96" value="Keypoints" style="rounded=1;whiteSpace=wrap;html=1;" vertex="1" parent="G4aiEyghwZzXeoxi_9_L-94">
          <mxGeometry x="20" y="85" width="70" height="20" as="geometry" />
        </mxCell>
        <mxCell id="G4aiEyghwZzXeoxi_9_L-160" value="Box" style="rounded=1;whiteSpace=wrap;html=1;" vertex="1" parent="G4aiEyghwZzXeoxi_9_L-94">
          <mxGeometry x="20" y="245" width="50" height="20" as="geometry" />
        </mxCell>
        <mxCell id="G4aiEyghwZzXeoxi_9_L-161" value="Keypoints" style="rounded=1;whiteSpace=wrap;html=1;" vertex="1" parent="G4aiEyghwZzXeoxi_9_L-94">
          <mxGeometry x="20" y="275" width="70" height="20" as="geometry" />
        </mxCell>
        <mxCell id="G4aiEyghwZzXeoxi_9_L-158" value="Box" style="rounded=1;whiteSpace=wrap;html=1;" vertex="1" parent="G4aiEyghwZzXeoxi_9_L-94">
          <mxGeometry x="20" y="175" width="50" height="20" as="geometry" />
        </mxCell>
        <mxCell id="G4aiEyghwZzXeoxi_9_L-159" value="Keypoints" style="rounded=1;whiteSpace=wrap;html=1;" vertex="1" parent="G4aiEyghwZzXeoxi_9_L-94">
          <mxGeometry x="20" y="205" width="70" height="20" as="geometry" />
        </mxCell>
        <mxCell id="G4aiEyghwZzXeoxi_9_L-162" value="Box" style="rounded=1;whiteSpace=wrap;html=1;" vertex="1" parent="G4aiEyghwZzXeoxi_9_L-94">
          <mxGeometry x="20" y="115" width="50" height="20" as="geometry" />
        </mxCell>
        <mxCell id="G4aiEyghwZzXeoxi_9_L-163" value="Keypoints" style="rounded=1;whiteSpace=wrap;html=1;" vertex="1" parent="G4aiEyghwZzXeoxi_9_L-94">
          <mxGeometry x="20" y="145" width="70" height="20" as="geometry" />
        </mxCell>
        <mxCell id="G4aiEyghwZzXeoxi_9_L-165" style="edgeStyle=orthogonalEdgeStyle;rounded=0;orthogonalLoop=1;jettySize=auto;html=1;entryX=0;entryY=0.5;entryDx=0;entryDy=0;" edge="1" parent="2b4e8129b02d487f-3" source="G4aiEyghwZzXeoxi_9_L-90" target="G4aiEyghwZzXeoxi_9_L-95">
          <mxGeometry relative="1" as="geometry" />
        </mxCell>
        <mxCell id="G4aiEyghwZzXeoxi_9_L-166" style="edgeStyle=orthogonalEdgeStyle;rounded=0;orthogonalLoop=1;jettySize=auto;html=1;entryX=0;entryY=0.5;entryDx=0;entryDy=0;" edge="1" parent="2b4e8129b02d487f-3" source="G4aiEyghwZzXeoxi_9_L-90" target="G4aiEyghwZzXeoxi_9_L-96">
          <mxGeometry relative="1" as="geometry" />
        </mxCell>
        <mxCell id="G4aiEyghwZzXeoxi_9_L-167" style="edgeStyle=orthogonalEdgeStyle;rounded=0;orthogonalLoop=1;jettySize=auto;html=1;" edge="1" parent="2b4e8129b02d487f-3" source="G4aiEyghwZzXeoxi_9_L-91" target="G4aiEyghwZzXeoxi_9_L-162">
          <mxGeometry relative="1" as="geometry" />
        </mxCell>
        <mxCell id="G4aiEyghwZzXeoxi_9_L-168" style="edgeStyle=orthogonalEdgeStyle;rounded=0;orthogonalLoop=1;jettySize=auto;html=1;entryX=0;entryY=0.5;entryDx=0;entryDy=0;" edge="1" parent="2b4e8129b02d487f-3" source="G4aiEyghwZzXeoxi_9_L-91" target="G4aiEyghwZzXeoxi_9_L-163">
          <mxGeometry relative="1" as="geometry" />
        </mxCell>
        <mxCell id="G4aiEyghwZzXeoxi_9_L-169" style="edgeStyle=orthogonalEdgeStyle;rounded=0;orthogonalLoop=1;jettySize=auto;html=1;" edge="1" parent="2b4e8129b02d487f-3" source="G4aiEyghwZzXeoxi_9_L-92" target="G4aiEyghwZzXeoxi_9_L-158">
          <mxGeometry relative="1" as="geometry" />
        </mxCell>
        <mxCell id="G4aiEyghwZzXeoxi_9_L-170" style="edgeStyle=orthogonalEdgeStyle;rounded=0;orthogonalLoop=1;jettySize=auto;html=1;entryX=0;entryY=0.75;entryDx=0;entryDy=0;" edge="1" parent="2b4e8129b02d487f-3" source="G4aiEyghwZzXeoxi_9_L-92" target="G4aiEyghwZzXeoxi_9_L-159">
          <mxGeometry relative="1" as="geometry" />
        </mxCell>
        <mxCell id="G4aiEyghwZzXeoxi_9_L-171" style="edgeStyle=orthogonalEdgeStyle;rounded=0;orthogonalLoop=1;jettySize=auto;html=1;" edge="1" parent="2b4e8129b02d487f-3" source="G4aiEyghwZzXeoxi_9_L-93" target="G4aiEyghwZzXeoxi_9_L-160">
          <mxGeometry relative="1" as="geometry" />
        </mxCell>
        <mxCell id="G4aiEyghwZzXeoxi_9_L-172" style="edgeStyle=orthogonalEdgeStyle;rounded=0;orthogonalLoop=1;jettySize=auto;html=1;entryX=0;entryY=0.5;entryDx=0;entryDy=0;" edge="1" parent="2b4e8129b02d487f-3" source="G4aiEyghwZzXeoxi_9_L-93" target="G4aiEyghwZzXeoxi_9_L-161">
          <mxGeometry relative="1" as="geometry" />
        </mxCell>
        <mxCell id="G4aiEyghwZzXeoxi_9_L-173" style="edgeStyle=orthogonalEdgeStyle;rounded=0;orthogonalLoop=1;jettySize=auto;html=1;" edge="1" parent="2b4e8129b02d487f-3" source="G4aiEyghwZzXeoxi_9_L-70" target="G4aiEyghwZzXeoxi_9_L-90">
          <mxGeometry relative="1" as="geometry" />
        </mxCell>
        <mxCell id="G4aiEyghwZzXeoxi_9_L-174" style="edgeStyle=orthogonalEdgeStyle;rounded=0;orthogonalLoop=1;jettySize=auto;html=1;entryX=0;entryY=0.5;entryDx=0;entryDy=0;" edge="1" parent="2b4e8129b02d487f-3" source="G4aiEyghwZzXeoxi_9_L-71" target="G4aiEyghwZzXeoxi_9_L-91">
          <mxGeometry relative="1" as="geometry" />
        </mxCell>
        <mxCell id="G4aiEyghwZzXeoxi_9_L-175" style="edgeStyle=orthogonalEdgeStyle;rounded=0;orthogonalLoop=1;jettySize=auto;html=1;entryX=0;entryY=0.5;entryDx=0;entryDy=0;" edge="1" parent="2b4e8129b02d487f-3" source="G4aiEyghwZzXeoxi_9_L-72" target="G4aiEyghwZzXeoxi_9_L-92">
          <mxGeometry relative="1" as="geometry" />
        </mxCell>
        <mxCell id="G4aiEyghwZzXeoxi_9_L-176" style="edgeStyle=orthogonalEdgeStyle;rounded=0;orthogonalLoop=1;jettySize=auto;html=1;" edge="1" parent="2b4e8129b02d487f-3" source="G4aiEyghwZzXeoxi_9_L-73" target="G4aiEyghwZzXeoxi_9_L-93">
          <mxGeometry relative="1" as="geometry" />
        </mxCell>
        <mxCell id="2b4e8129b02d487f-4" value="Classify" style="swimlane;html=1;startSize=20;horizontal=0;" parent="2b4e8129b02d487f-1" vertex="1">
          <mxGeometry y="610" width="1030" height="150" as="geometry" />
        </mxCell>
        <mxCell id="G4aiEyghwZzXeoxi_9_L-178" style="edgeStyle=orthogonalEdgeStyle;rounded=0;orthogonalLoop=1;jettySize=auto;html=1;entryX=0.5;entryY=0;entryDx=0;entryDy=0;exitX=0.5;exitY=1;exitDx=0;exitDy=0;" edge="1" parent="2b4e8129b02d487f-1" source="G4aiEyghwZzXeoxi_9_L-16" target="G4aiEyghwZzXeoxi_9_L-19">
          <mxGeometry relative="1" as="geometry">
            <Array as="points">
              <mxPoint x="910" y="160" />
              <mxPoint x="910" y="190" />
              <mxPoint x="510" y="190" />
              <mxPoint x="510" y="230" />
              <mxPoint x="150" y="230" />
            </Array>
          </mxGeometry>
        </mxCell>
      </root>
    </mxGraphModel>
  </diagram>
</mxfile>
